# 3ds Max Wavefront OBJ Exporter v0.97b - (c)2007 guruware
# File Created: 19.10.2017 11:36:05

#
# object Window_2_AO
#

v  -0.415941 -0.550115 -0.132072
v  0.415936 -0.550115 -0.132072
v  -0.415941 0.550185 -0.131221
v  0.415936 0.550185 -0.131221
v  -0.415941 -0.550185 0.131221
v  0.415936 -0.550185 0.131221
v  -0.415941 0.550115 0.132071
v  0.415936 0.550115 0.132071
v  -0.300903 -0.423588 0.131337
v  -0.049974 -0.423588 0.131337
v  -0.049974 -0.043845 0.131613
v  -0.300903 -0.043845 0.131613
v  0.041590 -0.423588 0.131337
v  0.300896 -0.423588 0.131337
v  0.300896 -0.043845 0.131613
v  0.041590 -0.043845 0.131613
v  -0.049974 0.047719 0.131679
v  -0.049974 0.427462 0.131955
v  -0.300903 0.427462 0.131955
v  -0.300903 0.047719 0.131679
v  0.300896 0.047719 0.131679
v  0.300896 0.427462 0.131955
v  0.041590 0.427462 0.131955
v  0.041590 0.047719 0.131679
v  -0.300903 -0.423554 0.085522
v  -0.049974 -0.423554 0.085522
v  -0.049974 -0.043811 0.085798
v  -0.300903 -0.043811 0.085798
v  0.041590 -0.423554 0.085522
v  0.300896 -0.423554 0.085522
v  0.300896 -0.043811 0.085798
v  0.041590 -0.043811 0.085798
v  -0.049974 0.047752 0.085864
v  -0.049974 0.427495 0.086140
v  -0.300903 0.427495 0.086140
v  -0.300903 0.047752 0.085864
v  0.300896 0.047752 0.085864
v  0.300896 0.427495 0.086140
v  0.041590 0.427495 0.086140
v  0.041590 0.047752 0.085864
# 40 vertices

vn 0.000000 -0.000726 1.000000
vn 0.000000 -0.000726 1.000000
vn 0.000000 -0.000726 1.000000
vn 0.000000 -0.000726 1.000000
vn -0.000000 -1.000000 -0.000268
vn -0.000000 -1.000000 -0.000268
vn -0.000000 -1.000000 -0.000268
vn -0.000000 -1.000000 -0.000268
vn 1.000000 0.000000 -0.000000
vn 1.000000 0.000000 -0.000000
vn 1.000000 0.000000 -0.000000
vn 1.000000 0.000000 -0.000000
vn 0.000000 1.000000 0.000267
vn 0.000000 1.000000 0.000267
vn 0.000000 1.000000 0.000267
vn 0.000000 1.000000 0.000267
vn -1.000000 0.000000 -0.000000
vn -1.000000 0.000000 -0.000000
vn -1.000000 0.000000 -0.000000
vn -1.000000 0.000000 -0.000000
vn 0.000000 -0.000726 1.000000
vn 0.000000 -0.000726 1.000000
vn 0.000000 -0.000726 1.000000
vn 0.000000 -0.000726 1.000000
vn 0.000000 -0.000726 1.000000
vn 0.000000 -0.000726 1.000000
vn 0.000000 -0.000726 1.000000
vn 0.000000 -0.000726 1.000000
vn 0.000000 -0.000726 1.000000
vn 0.000000 -0.000726 1.000000
vn 0.000000 -0.000726 1.000000
vn 0.000000 -0.000726 1.000000
vn 0.000013 -0.000770 1.000000
vn 0.000013 -0.000770 1.000000
vn 0.000013 -0.000770 1.000000
vn 0.000013 -0.000770 1.000000
vn 0.000000 -0.000920 1.000000
vn 0.000000 -0.000920 1.000000
vn 0.000000 -0.000920 1.000000
vn 0.000000 -0.000920 1.000000
vn 0.000000 -0.000949 1.000000
vn 0.000000 -0.000949 1.000000
vn 0.000000 -0.000949 1.000000
vn 0.000000 -0.000949 1.000000
vn -0.000013 -0.000770 1.000000
vn -0.000013 -0.000770 1.000000
vn -0.000013 -0.000770 1.000000
vn -0.000013 -0.000770 1.000000
vn 0.000000 -0.000726 1.000000
vn 0.000000 -0.000726 1.000000
vn 0.000000 -0.000726 1.000000
vn 0.000000 -0.000726 1.000000
vn 0.000000 -0.000726 1.000000
vn 0.000000 -0.000726 1.000000
vn 0.000000 -0.000726 1.000000
vn 0.000000 -0.000726 1.000000
vn 0.000000 -0.000726 1.000000
vn 0.000000 -0.000726 1.000000
vn -0.000000 -0.000726 1.000000
vn -0.000000 -0.000726 1.000000
vn -0.000000 -0.000726 1.000000
vn -0.000000 -0.000726 1.000000
vn -0.000000 -0.000726 1.000000
vn -0.000000 -0.000726 1.000000
vn -0.000000 -0.000726 1.000000
vn -0.000000 -0.000726 1.000000
vn -0.000000 -0.000726 1.000000
vn 0.000000 -0.000726 1.000000
vn -0.000213 -0.000726 1.000000
vn -0.000213 -0.000726 1.000000
vn -0.000213 -0.000726 1.000000
vn 0.000238 -0.000726 1.000000
vn 0.000238 -0.000726 1.000000
vn 0.000238 -0.000726 1.000000
vn -0.000000 -0.000949 1.000000
vn -0.000000 -0.000949 1.000000
vn -0.000000 -0.000949 1.000000
vn 0.000000 -0.000949 1.000000
vn 0.000000 -0.000949 1.000000
vn 0.000000 -0.000949 1.000000
vn -0.000237 -0.000726 1.000000
vn -0.000237 -0.000726 1.000000
vn -0.000237 -0.000726 1.000000
vn 0.000213 -0.000726 1.000000
vn 0.000213 -0.000726 1.000000
vn 0.000213 -0.000726 1.000000
vn 0.000000 1.000000 0.000726
vn 0.000000 1.000000 0.000726
vn 0.000000 1.000000 0.000726
vn 0.000000 1.000000 0.000726
vn -1.000000 0.000000 -0.000000
vn -1.000000 0.000000 -0.000000
vn -1.000000 0.000000 -0.000000
vn -1.000000 0.000000 -0.000000
vn -0.000000 -1.000000 -0.000726
vn -0.000000 -1.000000 -0.000726
vn -0.000000 -1.000000 -0.000726
vn -0.000000 -1.000000 -0.000726
vn 1.000000 0.000000 -0.000000
vn 1.000000 0.000000 -0.000000
vn 1.000000 0.000000 -0.000000
vn 1.000000 0.000000 -0.000000
vn 0.000000 1.000000 0.000726
vn 0.000000 1.000000 0.000726
vn 0.000000 1.000000 0.000726
vn 0.000000 1.000000 0.000726
vn -1.000000 0.000000 -0.000000
vn -1.000000 0.000000 -0.000000
vn -1.000000 0.000000 -0.000000
vn -1.000000 0.000000 -0.000000
vn -0.000000 -1.000000 -0.000726
vn -0.000000 -1.000000 -0.000726
vn -0.000000 -1.000000 -0.000726
vn -0.000000 -1.000000 -0.000726
vn 1.000000 0.000000 -0.000000
vn 1.000000 0.000000 -0.000000
vn 1.000000 0.000000 -0.000000
vn 1.000000 0.000000 -0.000000
vn -1.000000 0.000000 -0.000000
vn -1.000000 0.000000 -0.000000
vn -1.000000 0.000000 -0.000000
vn -1.000000 0.000000 -0.000000
vn 0.000000 -1.000000 -0.000725
vn 0.000000 -1.000000 -0.000725
vn 0.000000 -1.000000 -0.000725
vn 0.000000 -1.000000 -0.000725
vn 1.000000 0.000000 -0.000000
vn 1.000000 0.000000 -0.000000
vn 1.000000 0.000000 -0.000000
vn 1.000000 0.000000 -0.000000
vn 0.000000 1.000000 0.000726
vn 0.000000 1.000000 0.000726
vn 0.000000 1.000000 0.000726
vn 0.000000 1.000000 0.000726
vn -1.000000 0.000000 -0.000000
vn -1.000000 0.000000 -0.000000
vn -1.000000 0.000000 -0.000000
vn -1.000000 0.000000 -0.000000
vn -0.000000 -1.000000 -0.000725
vn -0.000000 -1.000000 -0.000725
vn -0.000000 -1.000000 -0.000725
vn -0.000000 -1.000000 -0.000725
vn 1.000000 0.000000 -0.000000
vn 1.000000 0.000000 -0.000000
vn 1.000000 0.000000 -0.000000
vn 1.000000 0.000000 -0.000000
vn 0.000000 1.000000 0.000726
vn 0.000000 1.000000 0.000726
vn 0.000000 1.000000 0.000726
vn 0.000000 1.000000 0.000726
vn 0.000000 -0.000920 1.000000
vn 0.000000 -0.000920 1.000000
vn 0.000000 -0.000920 1.000000
vn -0.000000 -0.000920 1.000000
vn -0.000000 -0.000920 1.000000
vn -0.000000 -0.000920 1.000000
# 156 vertex normals

vt 0.131594 0.935620 0.000000
vt 0.126624 0.957325 0.000000
vt 0.126624 0.909789 0.000000
vt 0.131594 0.931665 0.000000
vt 0.992899 0.443849 0.000000
vt 0.142435 0.915259 0.000000
vt 0.162563 0.909789 0.000000
vt 0.146391 0.915259 0.000000
vt 0.146391 0.952026 0.000000
vt 0.671612 0.662775 0.000000
vt 0.162563 0.957325 0.000000
vt 0.142435 0.952026 0.000000
vt 0.157593 0.931665 0.000000
vt 0.157593 0.935620 0.000000
vt 0.531296 0.721515 0.000000
vt 0.146391 0.935620 0.000000
vt 0.146391 0.931665 0.000000
vt 0.937796 0.632772 0.000000
vt 0.142435 0.935620 0.000000
vt 0.142435 0.931665 0.000000
vt 0.181997 0.530738 0.000000
vt 0.181997 0.519897 0.000000
vt 0.997843 0.605848 0.000000
vt 0.987002 0.605848 0.000000
vt 0.131594 0.915259 0.000000
vt 0.955962 0.884456 0.000000
vt 0.403590 0.771155 0.000000
vt 0.403590 0.782358 0.000000
vt 0.938324 0.993311 0.000000
vt 0.986367 0.952172 0.000000
vt 0.975527 0.952172 0.000000
vt 0.927483 0.993311 0.000000
vt 0.666947 0.385574 0.000000
vt 0.951047 0.960354 0.000000
vt 0.962249 0.960354 0.000000
vt 0.407438 0.762776 0.000000
vt 0.183977 0.519897 0.000000
vt 0.183977 0.530738 0.000000
vt 0.987002 0.603869 0.000000
vt 0.997843 0.603869 0.000000
vt 0.994924 0.114666 0.000000
vt 0.972368 0.884444 0.000000
vt 0.401611 0.782358 0.000000
vt 0.401611 0.771155 0.000000
vt 0.927483 0.991332 0.000000
vt 0.975527 0.950192 0.000000
vt 0.986367 0.950192 0.000000
vt 0.938324 0.991332 0.000000
vt 0.666935 0.369167 0.000000
vt 0.962249 0.962333 0.000000
vt 0.951047 0.962333 0.000000
vt 0.407438 0.751573 0.000000
vt 0.777245 0.816301 0.000000
vt 0.777245 0.805461 0.000000
vt 0.793651 0.805461 0.000000
vt 0.793651 0.816301 0.000000
vt 0.607862 0.953106 0.000000
vt 0.607862 0.941903 0.000000
vt 0.624268 0.941903 0.000000
vt 0.624268 0.953106 0.000000
vt 0.829715 0.760680 0.000000
vt 0.846121 0.760680 0.000000
vt 0.846121 0.771520 0.000000
vt 0.829715 0.771520 0.000000
vt 0.637159 0.916870 0.000000
vt 0.653565 0.916870 0.000000
vt 0.653565 0.928073 0.000000
vt 0.637159 0.928073 0.000000
vt 0.567235 0.721515 0.000000
vt 0.567235 0.732890 0.000000
vt 0.531296 0.732890 0.000000
vt 0.956960 0.443849 0.000000
vt 0.956960 0.432474 0.000000
vt 0.992899 0.432474 0.000000
vt 0.719148 0.662812 0.000000
vt 0.719145 0.674187 0.000000
vt 0.671609 0.674150 0.000000
vt 0.456379 0.513102 0.000000
vt 0.439973 0.513090 0.000000
vt 0.439974 0.511111 0.000000
vt 0.456380 0.511123 0.000000
vt 0.946181 0.942022 0.000000
vt 0.929775 0.942010 0.000000
vt 0.929776 0.940031 0.000000
vt 0.946182 0.940043 0.000000
vt 0.943928 0.930698 0.000000
vt 0.927521 0.930686 0.000000
vt 0.927523 0.928706 0.000000
vt 0.943929 0.928718 0.000000
vt 0.890261 0.632808 0.000000
vt 0.890258 0.621433 0.000000
vt 0.937793 0.621397 0.000000
vt 0.994924 0.103464 0.000000
vt 0.996904 0.103464 0.000000
vt 0.996904 0.114666 0.000000
vt 0.908109 0.452480 0.000000
vt 0.891702 0.452468 0.000000
vt 0.891704 0.450489 0.000000
vt 0.908110 0.450501 0.000000
vt 0.981535 0.895859 0.000000
vt 0.997940 0.895848 0.000000
vt 0.997942 0.897827 0.000000
vt 0.981536 0.897839 0.000000
vt 0.131594 0.952026 0.000000
vt 0.157593 0.952026 0.000000
vt 0.157593 0.915259 0.000000
vt 0.409417 0.751573 0.000000
vt 0.409417 0.762776 0.000000
vt 0.972370 0.886423 0.000000
vt 0.955963 0.886435 0.000000
vt 0.415394 0.511123 0.000000
vt 0.431801 0.511111 0.000000
vt 0.431802 0.513090 0.000000
vt 0.415395 0.513102 0.000000
vt 0.668914 0.369166 0.000000
vt 0.668926 0.385572 0.000000
# 116 texture coords

g Window_2_AO
s 4
f 26/54/1 27/55/2 28/56/3 25/53/4 
s 8
f 1/5/5 2/72/6 6/73/7 5/74/8 
s 16
f 2/10/9 4/75/10 8/76/11 6/77/12 
s 32
f 4/15/13 3/69/14 7/70/15 8/71/16 
s 64
f 3/18/17 1/90/18 5/91/19 7/92/20 
s 4
f 30/58/21 31/59/22 32/60/23 29/57/24 
f 34/62/25 35/63/26 36/64/27 33/61/28 
f 38/66/29 39/67/30 40/68/31 37/65/32 
s off
f 20/1/33 7/2/34 5/3/35 12/4/36 
f 5/3/37 6/7/38 13/8/39 10/6/40 
f 8/11/41 7/2/42 18/12/43 23/9/44 
f 15/13/45 6/7/46 8/11/47 21/14/48 
s 1
f 24/16/49 16/17/50 15/13/51 21/14/52 
f 20/1/53 12/4/54 11/20/55 17/19/56 
s 2
f 23/9/57 18/12/58 17/19/59 24/16/60 
s 8
f 11/20/61 16/17/62 24/16/63 17/19/64 
s 2
f 16/17/65 11/20/66 10/6/67 13/8/68 
s off
f 5/3/69 9/25/70 12/4/71 
f 20/1/72 19/104/73 7/2/74 
f 23/9/75 22/105/76 8/11/77 
f 7/2/78 19/104/79 18/12/80 
f 8/11/81 22/105/82 21/14/83 
f 15/13/84 14/106/85 6/7/86 
f 9/21/87 10/22/88 26/37/89 25/38/90 
f 10/100/91 11/101/92 27/102/93 26/103/94 
f 11/23/95 12/24/96 28/39/97 27/40/98 
f 12/78/99 9/79/100 25/80/101 28/81/102 
f 13/41/103 14/93/104 30/94/105 29/95/106 
f 14/26/107 15/42/108 31/109/109 30/110/110 
f 15/27/111 16/28/112 32/43/113 31/44/114 
f 16/82/115 13/83/116 29/84/117 32/85/118 
f 17/111/119 18/112/120 34/113/121 33/114/122 
f 18/30/123 19/31/124 35/46/125 34/47/126 
f 19/86/127 20/87/128 36/88/129 35/89/130 
f 20/29/131 17/32/132 33/45/133 36/48/134 
f 21/33/135 22/49/136 38/115/137 37/116/138 
f 22/34/139 23/35/140 39/50/141 38/51/142 
f 23/96/143 24/97/144 40/98/145 39/99/146 
f 24/36/147 21/52/148 37/107/149 40/108/150 
f 10/6/151 9/25/152 5/3/153 
f 6/7/154 14/106/155 13/8/156 
# 33 polygons - 8 triangles

